# xmcd CD database file
#
# Track frame offsets:
#	150
#	15015
#	30151
#	43219
#	57644
#	73678
#	88545
#	101539
#	116636
#	132343
#	145844
#	161309
#	175696
#	189996
#	206316
#
# Disc length: 2917 seconds
#
# Revision: 0
# Processed by: cddbd v1.5.2PL0 Copyright (c) Steve Scherf et al.
# Submitted via: CDex 1.74
#
DISCID=bc0b630f
DTITLE=Roy Heinrich - Listen To Your Heart
DYEAR=1996
DGENRE=Country
TTITLE0=Mister Come And Get Your Wife
TTITLE1=Fayette County
TTITLE2=Same Old Heartache
TTITLE3=You Kick Me When I'm Down
TTITLE4=My Tears Flow Like Rain
TTITLE5=Sittin' In This Honky Tonk
TTITLE6=Do You Hurt As Much As Me?
TTITLE7=The Way I Walk
TTITLE8=A Broken Heart And A Blue Rose
TTITLE9=Long Gone And Lonesome
TTITLE10=Honky Tonk Heartache
TTITLE11=Eye Of The Beholder
TTITLE12=Listen To Your Heart
TTITLE13=The First Stone
TTITLE14=Somewhere Between
EXTD=YEAR: 1996
EXTT0=
EXTT1=
EXTT2=
EXTT3=
EXTT4=
EXTT5=
EXTT6=
EXTT7=
EXTT8=
EXTT9=
EXTT10=
EXTT11=
EXTT12=
EXTT13=
EXTT14=
PLAYORDER=
